<svg xmlns="http://www.w3.org/2000/svg" xmlns:xlink="http://www.w3.org/1999/xlink" version="1.1" x="0px" y="0px" viewBox="0 0 42 70" style="stroke:white;fill:white" xml:space="preserve"><g><path d="M41,0H5C2.243,0,0,2.243,0,5v39v3c0,2.757,2.243,5,5,5h14.5c0.552,0,1-0.447,1-1s-0.448-1-1-1H5c-1.654,0-3-1.346-3-3v-3   c0-1.654,1.346-3,3-3h35v3v3c0,1.654-1.346,3-3,3c-0.553,0-1,0.447-1,1s0.447,1,1,1c2.757,0,5-2.243,5-5v-3v-4V1   C42,0.447,41.553,0,41,0z M5,39c-1.13,0-2.162,0.391-3,1.026V5c0-1.654,1.346-3,3-3h35v37H5z"/><path d="M33.5,7h-25c-0.552,0-1,0.447-1,1v10c0,0.553,0.448,1,1,1h25c0.553,0,1-0.447,1-1V8C34.5,7.447,34.053,7,33.5,7z M32.5,17   h-23V9h23V17z"/><path d="M35,42.5H7c-0.552,0-1,0.447-1,1s0.448,1,1,1h16V55c0,0.356,0.189,0.686,0.498,0.865c0.308,0.178,0.688,0.181,0.998,0.003   l3.004-1.717l3.004,1.717C30.657,55.956,30.829,56,31,56c0.174,0,0.347-0.045,0.502-0.135C31.81,55.686,32,55.356,32,55V44.5h3   c0.553,0,1-0.447,1-1S35.553,42.5,35,42.5z M30,53.276l-2.004-1.145c-0.307-0.176-0.686-0.176-0.992,0L25,53.276V44.5h5V53.276z"/><path d="M7,46.5c-0.552,0-1,0.447-1,1s0.448,1,1,1h12.5c0.552,0,1-0.447,1-1s-0.448-1-1-1H7z"/></g><text x="0" y="71" fill="#000000" stroke="#ffffff" font-size="5px" font-weight="bold" font-family="'Helvetica Neue', Helvetica, Arial-Unicode, Arial, Sans-serif">Created by Unlimiticon</text><text x="0" y="76" fill="#000000" font-size="5px" font-weight="bold" font-family="'Helvetica Neue', Helvetica, Arial-Unicode, Arial, Sans-serif">from the Noun Project</text></svg>